<?xml version="1.0" encoding="UTF-8" standalone="no"?>
<svg
   xmlns:dc="http://purl.org/dc/elements/1.1/"
   xmlns:cc="http://creativecommons.org/ns#"
   xmlns:rdf="http://www.w3.org/1999/02/22-rdf-syntax-ns#"
   xmlns:svg="http://www.w3.org/2000/svg"
   xmlns="http://www.w3.org/2000/svg"
   xmlns:sodipodi="http://sodipodi.sourceforge.net/DTD/sodipodi-0.dtd"
   xmlns:inkscape="http://www.inkscape.org/namespaces/inkscape"
   width="50pt"
   height="50pt"
   viewBox="0 0 50 50"
   xml:space="preserve"
   id="svg3254"
   version="1.1"
   inkscape:version="0.48.2 r9819"
   sodipodi:docname="inventor.data.svg"><metadata
   id="metadata3314"><rdf:RDF><cc:Work
       rdf:about=""><dc:format>image/svg+xml</dc:format><dc:type
         rdf:resource="http://purl.org/dc/dcmitype/StillImage" /><dc:title></dc:title></cc:Work></rdf:RDF></metadata><defs
   id="defs3312" /><sodipodi:namedview
   pagecolor="#ffffff"
   bordercolor="#666666"
   borderopacity="1"
   objecttolerance="10"
   gridtolerance="10"
   guidetolerance="10"
   inkscape:pageopacity="0"
   inkscape:pageshadow="2"
   inkscape:window-width="640"
   inkscape:window-height="480"
   id="namedview3310"
   showgrid="false"
   inkscape:zoom="3.776"
   inkscape:cx="31.25"
   inkscape:cy="31.25"
   inkscape:window-x="0"
   inkscape:window-y="0"
   inkscape:window-maximized="0"
   inkscape:current-layer="svg3254" />
<g
   transform="scale(0.5)"
   id="g3256">
	<g
   id="Icon Shadow"
   style="fill-rule:nonzero;clip-rule:nonzero;fill:#C0C0C0;stroke:none;stroke-miterlimit:4;fill-opacity:50%;">
		<path
   d="M38.83 99.78L22.00 90.88L60.55 71.22L77.82 79.8z"
   id="path3259" />
	</g>
	<g
   id="Paper Sheet 1"
   style="fill-rule:none;clip-rule:nonzero;fill:#FFFFFF;stroke:#000000;stroke-miterlimit:4;fill-opacity:100%;">
		<path
   d="M22.00 80.13L22.00 20.5L60.01 1.06999999999999L60.01 60.8z"
   id="path3262" />
	</g>
	<g
   id="Paper Sheet 2"
   style="fill-rule:none;clip-rule:nonzero;fill:#FFFFFF;stroke:#000000;stroke-miterlimit:4;fill-opacity:100%;">
		<path
   d="M30.69 84.47L30.69 25.17L68.70 5.41L68.70 65.03z"
   id="path3265" />
	</g>
	<g
   id="Third Sheet of Paper -- Closed"
   style="fill-rule:none;clip-rule:nonzero;fill:#FFFFFF;stroke:#000000;stroke-miterlimit:4;fill-opacity:100%;">
		<path
   d="M39.59 88.49L39.59 29.52L77.39 10.08L77.39 69.16z"
   id="path3268" />
	</g>
	<g
   id="Circle"
   style="fill-rule:nonzero;clip-rule:nonzero;fill:#FFFFFF;stroke:none;stroke-miterlimit:4;fill-opacity:100%;">
		<path
   d="M67.14 24.79L81.58 27.5L85.16 30.69L88.74 36.31L89.93 43.94L89.31 55.09L80.34 67.67L72.95 71.27L68.30 73.71L60.16 73.94L56.32 71.15L53.53 66.62L52.60 62.78L53.30 58.94L54.23 55.45L44.35 57.55L44.00 52.31L44.59 44.99L46.76 39.9L50.24 34.12L55.82 29.69z"
   id="path3271" />
	</g>
	<g
   id="g3273"
   style="fill-rule:none;clip-rule:nonzero;fill:#FFFFFF;stroke:#000000;stroke-miterlimit:4;fill-opacity:100%;">
		<path
   d="M72.48 8.18000000000001L77.68 9.40000000000001L81.33 11.13L84.11 14.09L84.63 19.12L82.83 23.83L80.51 27.43L77.60 29.99L74.35 31.73L70.51 32.55L66.32 31.85L63.80 27.97L63.45 21.72L63.73 17.17L65.40 12.61L67.68 9.8z"
   id="path3275" />
	</g>
	<g
   id="Path_6"
   style="fill-rule:none;clip-rule:nonzero;fill:#00fc00;stroke:#000000;stroke-miterlimit:4;fill-opacity:100%;">
		<path
   d="M74.35 56.5L65.36 48.94L59.70 63.83z"
   id="path3278" />
	</g>
	<g
   id="Path_7"
   style="fill-rule:none;clip-rule:nonzero;fill:none;stroke:#000000;stroke-miterlimit:4;fill-opacity:100%;">
		<path
   d="M88.48 0.900000000000006L85.07 1.8L78.93 1.34999999999999L74.84 2.26000000000001L71.31 4.79000000000001L65.75 12.26"
   id="path3281" />
	</g>
	<g
   id="Path_8"
   style="fill-rule:none;clip-rule:nonzero;fill:none;stroke:#000000;stroke-miterlimit:4;fill-opacity:100%;">
		<path
   d="M97.31 4.92L91.40 7.2L87.08 6.97L82.54 5.83L79.81 6.29000000000001L76.17 9.23999999999999L73.00 14.09"
   id="path3284" />
	</g>
	<g
   id="Path_9"
   style="fill-rule:none;clip-rule:nonzero;fill:none;stroke:#000000;stroke-miterlimit:4;fill-opacity:100%;">
		<path
   d="M98.90 11.06L93.67 13.79L90.49 14.24L88.67 11.97L85.04 12.2L82.31 13.33L79.40 18.42"
   id="path3287" />
	</g>
	<g
   id="Path_10"
   style="fill-rule:none;clip-rule:nonzero;fill:none;stroke:#000000;stroke-miterlimit:4;fill-opacity:100%;">
		<path
   d="M97.08 21.52L92.54 23.11L89.81 22.88L88.45 20.38L85.84 19.99L81.56 23.72"
   id="path3290" />
	</g>
	<g
   id="Path_11"
   style="fill-rule:none;clip-rule:nonzero;fill:none;stroke:#000000;stroke-miterlimit:4;fill-opacity:100%;">
		<path
   d="M70.74 26.06L68.14 24.68L70.74 23.24L73.18 21.27L66.92 18.08"
   id="path3293" />
	</g>
	<g
   id="Path_12"
   style="fill-rule:none;clip-rule:nonzero;fill:none;stroke:#000000;stroke-miterlimit:4;fill-opacity:100%;">
		<path
   d="M56.40 38.45L62.06 35.96L68.66 36.65L73.52 39.43L71.99 43.3L64.66 40.65L59.63 43.25L56.33 50.2L49.56 53.84L44.01 51.93L44.53 44.99L46.61 39.78L50.25 34.05L55.81 29.54L61.89 26.93"
   id="path3296" />
	</g>
	<g
   id="Path_13"
   style="fill-rule:nonzero;clip-rule:nonzero;fill:#f80000;stroke:none;stroke-miterlimit:4;fill-opacity:100%;">
		<path
   d="M66.54 42.16L62.49 43.35L65.36 47.63z"
   id="path3299" />
	</g>
	<g
   id="Path_14"
   style="fill-rule:nonzero;clip-rule:nonzero;fill:#f80000;stroke:none;stroke-miterlimit:4;fill-opacity:100%;">
		<path
   d="M75.35 48.94L72.25 47.16L69.75 52.51z"
   id="path3302" />
	</g>
	<g
   id="Path_15"
   style="fill-rule:nonzero;clip-rule:nonzero;fill:#f80000;stroke:none;stroke-miterlimit:4;fill-opacity:100%;">
		<path
   d="M58.53 51.27L57.02 55.45L62.83 54.41z"
   id="path3305" />
	</g>
	<g
   id="Path_16"
   style="fill-rule:none;clip-rule:nonzero;fill:none;stroke:#000000;stroke-miterlimit:4;fill-opacity:100%;">
		<path
   d="M78.53 56.5L74.35 61.96L63.53 67.43L60.04 68.13L56.32 67.2L56.43 71.43L59.98 73.98L68.33 73.93L80.34 67.74L89.38 55.11L90.02 43.86L88.77 36.27L85.16 30.69L81.90 27.78"
   id="path3308" />
	</g>
</g>
</svg>