<?xml version="1.0" encoding="UTF-8" standalone="no"?>
<svg
   xmlns:dc="http://purl.org/dc/elements/1.1/"
   xmlns:cc="http://creativecommons.org/ns#"
   xmlns:rdf="http://www.w3.org/1999/02/22-rdf-syntax-ns#"
   xmlns:svg="http://www.w3.org/2000/svg"
   xmlns="http://www.w3.org/2000/svg"
   xmlns:sodipodi="http://sodipodi.sourceforge.net/DTD/sodipodi-0.dtd"
   xmlns:inkscape="http://www.inkscape.org/namespaces/inkscape"
   width="50pt"
   height="50pt"
   viewBox="0 0 50 50"
   xml:space="preserve"
   id="svg3541"
   version="1.1"
   inkscape:version="0.48.2 r9819"
   sodipodi:docname="inventor.open.svg"><metadata
   id="metadata3595"><rdf:RDF><cc:Work
       rdf:about=""><dc:format>image/svg+xml</dc:format><dc:type
         rdf:resource="http://purl.org/dc/dcmitype/StillImage" /><dc:title></dc:title></cc:Work></rdf:RDF></metadata><defs
   id="defs3593" /><sodipodi:namedview
   pagecolor="#ffffff"
   bordercolor="#666666"
   borderopacity="1"
   objecttolerance="10"
   gridtolerance="10"
   guidetolerance="10"
   inkscape:pageopacity="0"
   inkscape:pageshadow="2"
   inkscape:window-width="640"
   inkscape:window-height="480"
   id="namedview3591"
   showgrid="false"
   inkscape:zoom="3.776"
   inkscape:cx="31.25"
   inkscape:cy="31.25"
   inkscape:window-x="0"
   inkscape:window-y="0"
   inkscape:window-maximized="0"
   inkscape:current-layer="svg3541" />
<g
   transform="scale(0.5)"
   id="g3543">
	<g
   id="Icon - Open"
   style="fill-rule:none;clip-rule:nonzero;fill:#FFFFFF;stroke:#000000;stroke-miterlimit:4;fill-opacity:100%;">
		<path
   d="M18.00 74L15.84 72.72L14.00 71L12.10 68.73L10.90 66.8L10.00 64L10.00 60L10.00 20L50.00 0L50.00 40L50.00 44L50.88 47.16L52.04 49.3L53.48 50.86L55.00 52L58.00 54z"
   id="path3546" />
	</g>
	<g
   id="Icon Shadow - Open"
   style="fill-rule:nonzero;clip-rule:nonzero;fill:#C0C0C0;stroke:none;stroke-miterlimit:4;fill-opacity:50%;">
		<path
   d="M18.00 84L10.00 80L50.00 60L58.00 64z"
   id="path3549" />
	</g>
	<g
   id="Circle"
   style="fill-rule:nonzero;clip-rule:nonzero;fill:#FFFFFF;stroke:none;stroke-miterlimit:4;fill-opacity:100%;">
		<path
   d="M61.14 25.08L75.58 27.79L79.16 30.97L82.74 36.6L83.93 44.23L83.31 55.38L74.34 67.96L66.95 71.55L62.30 73.99L54.16 74.23L50.32 71.44L47.53 66.9L46.60 63.06L47.30 59.23L48.23 55.74L38.35 57.83L38.00 52.6L38.59 45.28L40.76 40.19L44.24 34.41L49.82 29.97z"
   id="path3552" />
	</g>
	<g
   id="g3554"
   style="fill-rule:none;clip-rule:nonzero;fill:#FFFFFF;stroke:#000000;stroke-miterlimit:4;fill-opacity:100%;">
		<path
   d="M66.48 8.47L71.68 9.68000000000001L75.33 11.42L78.11 14.37L78.63 19.41L76.83 24.11L74.51 27.72L71.60 30.27L68.35 32.02L64.51 32.83L60.32 32.13L57.80 28.26L57.45 22.01L57.73 17.46L59.40 12.9L61.68 10.09z"
   id="path3556" />
	</g>
	<g
   id="Path_4"
   style="fill-rule:none;clip-rule:nonzero;fill:#00fc00;stroke:#000000;stroke-miterlimit:4;fill-opacity:100%;">
		<path
   d="M68.35 56.79L59.36 49.22L53.70 64.11z"
   id="path3559" />
	</g>
	<g
   id="Path_5"
   style="fill-rule:none;clip-rule:nonzero;fill:none;stroke:#000000;stroke-miterlimit:4;fill-opacity:100%;">
		<path
   d="M82.48 1.18000000000001L79.07 2.09L72.93 1.64L68.84 2.55L65.31 5.08L59.75 12.55"
   id="path3562" />
	</g>
	<g
   id="Path_6"
   style="fill-rule:none;clip-rule:nonzero;fill:none;stroke:#000000;stroke-miterlimit:4;fill-opacity:100%;">
		<path
   d="M91.31 5.20999999999999L85.40 7.48L81.08 7.26000000000001L76.54 6.12L73.81 6.56999999999999L70.17 9.53L67.00 14.37"
   id="path3565" />
	</g>
	<g
   id="Path_7"
   style="fill-rule:none;clip-rule:nonzero;fill:none;stroke:#000000;stroke-miterlimit:4;fill-opacity:100%;">
		<path
   d="M92.90 11.35L87.67 14.07L84.49 14.53L82.67 12.26L79.04 12.48L76.31 13.62L73.40 18.7"
   id="path3568" />
	</g>
	<g
   id="Path_8"
   style="fill-rule:none;clip-rule:nonzero;fill:none;stroke:#000000;stroke-miterlimit:4;fill-opacity:100%;">
		<path
   d="M91.08 21.8L86.54 23.39L83.81 23.16L82.45 20.66L79.84 20.27L75.56 24"
   id="path3571" />
	</g>
	<g
   id="Path_9"
   style="fill-rule:none;clip-rule:nonzero;fill:none;stroke:#000000;stroke-miterlimit:4;fill-opacity:100%;">
		<path
   d="M64.74 26.35L62.14 24.96L64.74 23.53L67.18 21.55L60.92 18.36"
   id="path3574" />
	</g>
	<g
   id="Path_10"
   style="fill-rule:none;clip-rule:nonzero;fill:none;stroke:#000000;stroke-miterlimit:4;fill-opacity:100%;">
		<path
   d="M50.40 38.74L56.06 36.25L62.66 36.94L67.52 39.72L65.99 43.59L58.66 40.93L53.63 43.54L50.33 50.48L43.56 54.13L38.01 52.22L38.53 45.27L40.61 40.06L44.25 34.34L49.81 29.82L55.89 27.22"
   id="path3577" />
	</g>
	<g
   id="Path_11"
   style="fill-rule:nonzero;clip-rule:nonzero;fill:#f80000;stroke:none;stroke-miterlimit:4;fill-opacity:100%;">
		<path
   d="M60.54 42.45L56.49 43.64L59.36 47.91z"
   id="path3580" />
	</g>
	<g
   id="Path_12"
   style="fill-rule:nonzero;clip-rule:nonzero;fill:#f80000;stroke:none;stroke-miterlimit:4;fill-opacity:100%;">
		<path
   d="M69.35 49.23L66.25 47.45L63.75 52.8z"
   id="path3583" />
	</g>
	<g
   id="Path_13"
   style="fill-rule:nonzero;clip-rule:nonzero;fill:#f80000;stroke:none;stroke-miterlimit:4;fill-opacity:100%;">
		<path
   d="M52.53 51.55L51.02 55.74L56.83 54.69z"
   id="path3586" />
	</g>
	<g
   id="Path_14"
   style="fill-rule:none;clip-rule:nonzero;fill:none;stroke:#000000;stroke-miterlimit:4;fill-opacity:100%;">
		<path
   d="M72.53 56.79L68.35 62.25L57.53 67.72L54.04 68.41L50.32 67.48L50.43 71.72L53.98 74.26L62.33 74.22L74.34 68.03L83.38 55.4L84.02 44.14L82.77 36.55L79.16 30.97L75.90 28.06"
   id="path3589" />
	</g>
</g>
</svg>